<?xml version="1.0" standalone="no"?>
<!DOCTYPE svg PUBLIC "-//W3C//DTD SVG 20010904//EN"
 "http://www.w3.org/TR/2001/REC-SVG-20010904/DTD/svg10.dtd">
<svg version="1.0" xmlns="http://www.w3.org/2000/svg"
 width="700.000000pt" height="700.000000pt" viewBox="0 0 700.000000 700.000000"
 preserveAspectRatio="xMidYMid meet">
<metadata>
Created by potrace 1.11, written by Peter Selinger 2001-2013
</metadata>
<g transform="translate(0.000000,700.000000) scale(0.100000,-0.100000)"
fill="#000000" stroke="none">
<path d="M79 6984 c-23 -9 -44 -29 -57 -53 l-22 -39 0 -3388 c0 -3207 1 -3391
18 -3423 9 -19 30 -44 45 -55 l28 -21 3397 -3 c3107 -2 3400 -1 3433 14 22 10
45 31 58 54 l21 38 0 3386 c0 3796 7 3446 -74 3486 l-42 20 -3385 -1 c-2976 0
-3388 -2 -3420 -15z"/>
</g>
</svg>
