<?xml version="1.0" encoding="UTF-8" standalone="no"?>
<svg width="14px" height="25px" viewBox="0 0 14 25" version="1.1" xmlns="http://www.w3.org/2000/svg" xmlns:xlink="http://www.w3.org/1999/xlink" xmlns:sketch="http://www.bohemiancoding.com/sketch/ns">
    <!-- Generator: Sketch 3.3.2 (12043) - http://www.bohemiancoding.com/sketch -->
    <title>Rectangle 15</title>
    <desc>Created with Sketch.</desc>
    <defs></defs>
    <g id="Page-1" stroke="none" stroke-width="1" fill="none" fill-rule="evenodd" sketch:type="MSPage">
        <g id="Trent-Bledsoe" sketch:type="MSArtboardGroup" transform="translate(-236.000000, -502.000000)" fill="#1F3340">
            <path d="M236,502.995457 C236,502.445681 236.449949,502 237.006845,502 L248.993155,502 C249.54922,502 250,502.455263 250,502.995457 L250,526.004543 C250,526.554319 249.550051,527 248.993155,527 L237.006845,527 C236.45078,527 236,526.544737 236,526.004543 L236,502.995457 Z M237,505 L249,505 L249,523 L237,523 L237,505 Z M243,526 C243.552285,526 244,525.552285 244,525 C244,524.447715 243.552285,524 243,524 C242.447715,524 242,524.447715 242,525 C242,525.552285 242.447715,526 243,526 Z" id="Rectangle-15" sketch:type="MSShapeGroup"></path>
        </g>
    </g>
</svg>