<?xml version="1.0" encoding="UTF-8" standalone="no"?>
<svg width="239px" height="55px" viewBox="0 0 239 55" version="1.1" xmlns="http://www.w3.org/2000/svg" xmlns:xlink="http://www.w3.org/1999/xlink">
    <!-- Generator: Sketch 3.6.1 (26313) - http://www.bohemiancoding.com/sketch -->
    <title>uxenterprise</title>
    <desc>Created with Sketch.</desc>
    <defs>
        <path id="path-1" d="M61.0220492,0.0847540984 L56.2063934,0.0847540984 L44.5391803,17.389918 L33.077541,0.0847540984 L26.4982787,0.0847540984 L26.4982787,25.6913115 C26.4982787,27.3836885 26.29,29.0255738 25.9068033,30.6187705 C25.5218033,32.2119672 24.8906557,33.627541 24.0259836,34.8672951 C23.1613115,36.1061475 22.0144262,37.1096721 20.5943443,37.8769672 C19.172459,38.6433607 17.4232787,39.027459 15.3495082,39.027459 C13.2748361,39.027459 11.5256557,38.6433607 10.1055738,37.8769672 C8.68368852,37.1096721 7.54131148,36.1061475 6.67663934,34.8672951 C5.81286885,33.627541 5.19344262,32.2119672 4.8102459,30.6187705 C4.4252459,29.0255738 4.2395082,27.3836885 4.2395082,25.6913115 L4.2395082,0.0847540984 L0,0.0847540984 L0,26.1637705 C0,27.894918 0.26057377,29.7333607 0.702377049,31.6809016 C1.14327869,33.627541 1.96106557,35.4272131 3.11336066,37.079918 C4.26565574,38.7317213 5.83090164,40.0995082 7.79016393,41.1805738 C9.74852459,42.262541 12.2686066,42.8035246 15.3422951,42.8035246 C18.3763115,42.8035246 20.8846721,42.262541 22.8637705,41.1805738 C24.8410656,40.0995082 26.4081148,38.7317213 27.5604098,37.079918 C28.7127049,35.4272131 29.5710656,33.627541 30.0128689,31.6809016 C30.4546721,29.7333607 30.7377869,27.894918 30.7377869,26.1637705 L30.7377869,4.10967213 L41.8234426,20.2390984 L26.6668852,42.6917213 L31.7187705,42.6917213 L44.4210656,23.3903279 L57.1819672,42.6917213 L62.2347541,42.6917213 L47.1386066,20.359918 L61.0220492,0.0847540984 L61.0220492,0.0847540984 Z"></path>
    </defs>
    <g id="final-version" stroke="none" stroke-width="1" fill="none" fill-rule="evenodd">
        <g id="persona-built-generated" transform="translate(-531.000000, -22.000000)">
            <g id="uxenterprise" transform="translate(531.000000, 22.000000)">
                <path d="M61.0220492,6.39622951 L56.2063934,6.39622951 L44.5391803,23.7013934 L33.077541,6.39622951 L26.4982787,6.39622951 L26.4982787,32.0027869 C26.4982787,33.6951639 26.29,35.3370492 25.9068033,36.9302459 C25.5218033,38.5234426 24.8906557,39.9390164 24.0259836,41.1787705 C23.1613115,42.417623 22.0144262,43.4211475 20.5943443,44.1884426 C19.172459,44.9548361 17.4232787,45.3389344 15.3495082,45.3389344 C13.2748361,45.3389344 11.5256557,44.9548361 10.1055738,44.1884426 C8.68368852,43.4211475 7.54131148,42.417623 6.67663934,41.1787705 C5.81286885,39.9390164 5.19344262,38.5234426 4.8102459,36.9302459 C4.4252459,35.3370492 4.2395082,33.6951639 4.2395082,32.0027869 L4.2395082,6.39622951 L0,6.39622951 L0,32.4752459 C0,34.2063934 0.26057377,36.0448361 0.702377049,37.992377 C1.14327869,39.9390164 1.96106557,41.7386885 3.11336066,43.3913934 C4.26565574,45.0431967 5.83090164,46.4109836 7.79016393,47.4920492 C9.74852459,48.5740164 12.2686066,49.115 15.3422951,49.115 C18.3763115,49.115 20.8846721,48.5740164 22.8637705,47.4920492 C24.8410656,46.4109836 26.4081148,45.0431967 27.5604098,43.3913934 C28.7127049,41.7386885 29.5710656,39.9390164 30.0128689,37.992377 C30.4546721,36.0448361 30.7377869,34.2063934 30.7377869,32.4752459 L30.7377869,10.4211475 L41.8234426,26.5505738 L26.6668852,49.0031967 L31.7187705,49.0031967 L44.4210656,29.7018033 L57.1819672,49.0031967 L62.2347541,49.0031967 L47.1386066,26.6713934 L61.0220492,6.39622951" id="Fill-1" fill="#FFFFFF"></path>
                <g id="Group-4" transform="translate(0.000000, 6.311475)">
                    <mask id="mask-2" fill="white">
                        <use xlink:href="#path-1"></use>
                    </mask>
                    <g id="Clip-3"></g>
                    <path d="M0,0.0847540984 L62.2347541,0.0847540984 L62.2347541,42.8035246 L0,42.8035246 L0,0.0847540984 Z" id="Fill-2" fill="#FFFFFF" mask="url(#mask-2)"></path>
                </g>
                <path d="M72.1004918,0.780819672 L73.2086066,0.780819672 L73.2086066,54.9459016 L72.1004918,54.9459016 L72.1004918,0.780819672 Z" id="Fill-5" fill="#FFFFFF"></path>
                <path d="M84.712623,10.3913934 L92.3810656,10.3913934 L92.3810656,11.8105738 L86.3959836,11.8105738 L86.3959836,15.9905738 L91.4478689,15.9905738 L91.4478689,17.4304918 L86.3959836,17.4304918 L86.3959836,22.2587705 L92.5839344,22.2587705 L92.5839344,23.6995902 L84.712623,23.6995902 L84.712623,10.3913934" id="Fill-7" fill="#FFFFFF"></path>
                <path d="M95.4033607,10.3913934 L97.1480328,10.3913934 L101.956475,18.7495902 L103.396393,21.5086066 L103.478443,21.5086066 C103.437869,20.832377 103.393689,20.1327049 103.345902,19.4086885 C103.299016,18.6855738 103.274672,17.9714754 103.274672,17.2681967 L103.274672,10.3913934 L104.877787,10.3913934 L104.877787,23.6995902 L103.133115,23.6995902 L98.3048361,15.3206557 L96.8640164,12.582377 L96.7828689,12.582377 C96.8369672,13.2586066 96.887459,13.9447541 96.9352459,14.6408197 C96.9821311,15.3377869 97.0064754,16.037459 97.0064754,16.7407377 L97.0064754,23.6995902 L95.4033607,23.6995902 L95.4033607,10.3913934" id="Fill-8" fill="#FFFFFF"></path>
                <path d="M111.288443,11.8105738 L107.271639,11.8105738 L107.271639,10.3913934 L117.009344,10.3913934 L117.009344,11.8105738 L112.992541,11.8105738 L112.992541,23.6995902 L111.288443,23.6995902 L111.288443,11.8105738" id="Fill-9" fill="#FFFFFF"></path>
                <path d="M119.403197,10.3913934 L127.072541,10.3913934 L127.072541,11.8105738 L121.087459,11.8105738 L121.087459,15.9905738 L126.139344,15.9905738 L126.139344,17.4304918 L121.087459,17.4304918 L121.087459,22.2587705 L127.274508,22.2587705 L127.274508,23.6995902 L119.403197,23.6995902 L119.403197,10.3913934" id="Fill-10" fill="#FFFFFF"></path>
                <path d="M131.778197,16.7001639 L134.009754,16.7001639 C135.051148,16.7001639 135.849098,16.487377 136.403607,16.0618033 C136.958115,15.6353279 137.23582,14.9897541 137.23582,14.1232787 C137.23582,13.245082 136.958115,12.6292623 136.403607,12.277623 C135.849098,11.9259836 135.051148,11.7501639 134.009754,11.7501639 L131.778197,11.7501639 L131.778197,16.7001639 L131.778197,16.7001639 Z M137.398115,23.6995902 L134.192787,18.0796721 L131.778197,18.0796721 L131.778197,23.6995902 L130.094836,23.6995902 L130.094836,10.3913934 L134.253197,10.3913934 C134.929426,10.3913934 135.555164,10.4554098 136.13041,10.5834426 C136.704754,10.712377 137.197951,10.9251639 137.610902,11.2227049 C138.022951,11.5202459 138.343934,11.9061475 138.574754,12.3786066 C138.804672,12.8528689 138.91918,13.4344262 138.91918,14.1232787 C138.91918,15.1655738 138.648689,15.9968852 138.107705,16.6190164 C137.566721,17.2411475 136.843607,17.667623 135.937459,17.897541 L139.305082,23.6995902 L137.398115,23.6995902 L137.398115,23.6995902 Z" id="Fill-11" fill="#FFFFFF"></path>
                <path d="M145.756311,17.0454918 C146.919426,17.0454918 147.781393,16.8254918 148.343115,16.3854918 C148.903934,15.9463934 149.185246,15.2530328 149.185246,14.3063115 C149.185246,13.3460656 148.900328,12.6797541 148.333197,12.3082787 C147.764262,11.9359016 146.905,11.7501639 145.756311,11.7501639 L143.565328,11.7501639 L143.565328,17.0454918 L145.756311,17.0454918 L145.756311,17.0454918 Z M141.881967,10.3913934 L145.95918,10.3913934 C146.689508,10.3913934 147.358525,10.4590164 147.967131,10.5933607 C148.576639,10.7286066 149.093279,10.9486066 149.518852,11.2533607 C149.945328,11.5572131 150.277131,11.9602459 150.514262,12.4597541 C150.74959,12.9601639 150.868607,13.5759836 150.868607,14.3063115 C150.868607,15.0095902 150.74959,15.6181967 150.514262,16.1321311 C150.277131,16.6460656 149.941721,17.072541 149.508934,17.4106557 C149.076148,17.7487705 148.559508,18.0021311 147.957213,18.1716393 C147.35582,18.3402459 146.689508,18.425 145.95918,18.425 L143.565328,18.425 L143.565328,23.6995902 L141.881967,23.6995902 L141.881967,10.3913934 L141.881967,10.3913934 Z" id="Fill-12" fill="#FFFFFF"></path>
                <path d="M155.251475,16.7001639 L157.482131,16.7001639 C158.523525,16.7001639 159.321475,16.487377 159.875984,16.0618033 C160.430492,15.6353279 160.708197,14.9897541 160.708197,14.1232787 C160.708197,13.245082 160.430492,12.6292623 159.875984,12.277623 C159.321475,11.9259836 158.523525,11.7501639 157.482131,11.7501639 L155.251475,11.7501639 L155.251475,16.7001639 L155.251475,16.7001639 Z M160.870492,23.6995902 L157.664262,18.0796721 L155.251475,18.0796721 L155.251475,23.6995902 L153.567213,23.6995902 L153.567213,10.3913934 L157.725574,10.3913934 C158.401803,10.3913934 159.027541,10.4554098 159.601885,10.5834426 C160.177131,10.712377 160.67123,10.9251639 161.083279,11.2227049 C161.49623,11.5202459 161.816311,11.9061475 162.047131,12.3786066 C162.276148,12.8528689 162.392459,13.4344262 162.392459,14.1232787 C162.392459,15.1655738 162.121066,15.9968852 161.580984,16.6190164 C161.039098,17.2411475 160.315984,17.667623 159.408934,17.897541 L162.777459,23.6995902 L160.870492,23.6995902 L160.870492,23.6995902 Z" id="Fill-13" fill="#FFFFFF"></path>
                <path d="M165.353443,10.3913934 L167.037705,10.3913934 L167.037705,23.6995902 L165.353443,23.6995902 L165.353443,10.3913934 Z" id="Fill-14" fill="#FFFFFF"></path>
                <path d="M170.729016,20.7981148 C171.203279,21.2985246 171.760492,21.7015574 172.403361,22.0054098 C173.045328,22.3101639 173.711639,22.4616393 174.401393,22.4616393 C175.280492,22.4616393 175.963033,22.262377 176.45082,21.8638525 C176.936803,21.4644262 177.181148,20.9405738 177.181148,20.2913934 C177.181148,19.9532787 177.122541,19.6656557 177.008033,19.4285246 C176.893525,19.1922951 176.737541,18.9894262 176.540984,18.819918 C176.345328,18.6513115 176.111803,18.4989344 175.841311,18.3636885 C175.57082,18.2284426 175.280492,18.0868852 174.969426,17.9381148 L173.062459,17.1059016 C172.751393,16.9706557 172.433115,16.8092623 172.108525,16.6190164 C171.784836,16.4296721 171.493607,16.1997541 171.236639,15.9292623 C170.97877,15.6587705 170.76959,15.3377869 170.607295,14.9654098 C170.445,14.5939344 170.363852,14.1638525 170.363852,13.6769672 C170.363852,13.177459 170.468443,12.7104098 170.678525,12.277623 C170.888607,11.8448361 171.178934,11.4697541 171.551311,11.1514754 C171.922787,10.8340984 172.362787,10.5870492 172.869508,10.4112295 C173.377131,10.2354098 173.934344,10.1470492 174.543852,10.1470492 C175.340902,10.1470492 176.078443,10.2994262 176.754672,10.6041803 C177.430902,10.9080328 178.005246,11.3038525 178.478607,11.7907377 L177.566148,12.8862295 C177.16041,12.4940164 176.710492,12.1865574 176.217295,11.9629508 C175.723197,11.7402459 175.165082,11.6284426 174.543852,11.6284426 C173.799098,11.6284426 173.20041,11.8006557 172.747787,12.1459836 C172.294262,12.4904098 172.067951,12.967377 172.067951,13.5759836 C172.067951,13.9005738 172.132869,14.1746721 172.260902,14.397377 C172.388934,14.6209836 172.562049,14.817541 172.778443,14.9861475 C172.993934,15.1556557 173.231066,15.3044262 173.488033,15.432459 C173.745,15.5613934 174.008279,15.6795082 174.27877,15.7877049 L176.166803,16.5991803 C176.54459,16.7605738 176.903443,16.9472131 177.241557,17.1563934 C177.579672,17.3664754 177.870902,17.609918 178.114344,17.8867213 C178.356885,18.1644262 178.549836,18.4890164 178.692295,18.8604918 C178.833852,19.2328689 178.905082,19.6620492 178.905082,20.1489344 C178.905082,20.6763934 178.800492,21.1704918 178.59041,21.6303279 C178.38123,22.0901639 178.07918,22.4922951 177.687869,22.8367213 C177.295656,23.1820492 176.822295,23.452541 176.267787,23.6490984 C175.712377,23.8447541 175.083934,23.9430328 174.380656,23.9430328 C173.447459,23.9430328 172.581885,23.7672131 171.784836,23.4155738 C170.985984,23.0639344 170.29623,22.5833607 169.714672,21.9747541 L170.729016,20.7981148" id="Fill-15" fill="#FFFFFF"></path>
                <path d="M181.522541,10.3913934 L189.190082,10.3913934 L189.190082,11.8105738 L183.206803,11.8105738 L183.206803,15.9905738 L188.256885,15.9905738 L188.256885,17.4304918 L183.206803,17.4304918 L183.206803,22.2587705 L189.393852,22.2587705 L189.393852,23.6995902 L181.522541,23.6995902 L181.522541,10.3913934" id="Fill-16" fill="#FFFFFF"></path>
                <path d="M84.6513115,32.0812295 L86.3346721,32.0812295 L86.3346721,39.9327049 C86.3346721,40.7306557 86.4167213,41.4005738 86.5790164,41.9415574 C86.7404098,42.482541 86.9604098,42.9153279 87.2381148,43.239918 C87.514918,43.5645082 87.8431148,43.7971311 88.2218033,43.9395902 C88.6004918,44.0811475 89.0062295,44.152377 89.4390164,44.152377 C89.8853279,44.152377 90.2982787,44.0811475 90.6769672,43.9395902 C91.0556557,43.7971311 91.3865574,43.5645082 91.6705738,43.239918 C91.9545902,42.9153279 92.1781967,42.482541 92.3404918,41.9415574 C92.5027869,41.4005738 92.5839344,40.7306557 92.5839344,39.9327049 L92.5839344,32.0812295 L94.2068852,32.0812295 L94.2068852,39.8921311 C94.2068852,40.9605738 94.0851639,41.8604098 93.8417213,42.5898361 C93.5982787,43.3210656 93.2628689,43.912541 92.8372951,44.3651639 C92.4108197,44.8186885 91.9077049,45.1432787 91.3261475,45.3398361 C90.7445902,45.5354918 90.1152459,45.6328689 89.4390164,45.6328689 C88.7627869,45.6328689 88.1307377,45.5354918 87.5419672,45.3398361 C86.9540984,45.1432787 86.447377,44.8186885 86.0209016,44.3651639 C85.5944262,43.912541 85.259918,43.3210656 85.0164754,42.5898361 C84.7730328,41.8604098 84.6513115,40.9605738 84.6513115,39.8921311 L84.6513115,32.0812295" id="Fill-17" fill="#FFFFFF"></path>
                <path d="M97.634918,42.4888525 C98.1082787,42.9892623 98.6663934,43.3913934 99.3092623,43.6961475 C99.9512295,44 100.617541,44.152377 101.307295,44.152377 C102.186393,44.152377 102.868934,43.9531148 103.35582,43.5536885 C103.843607,43.1551639 104.086148,42.6304098 104.086148,41.9821311 C104.086148,41.6431148 104.029344,41.3563934 103.913934,41.1192623 C103.799426,40.8830328 103.643443,40.6801639 103.447787,40.5106557 C103.25123,40.3420492 103.017705,40.1896721 102.747213,40.0544262 C102.476721,39.9191803 102.186393,39.777623 101.875328,39.6279508 L99.9683607,38.7966393 C99.6572951,38.6613934 99.3390164,38.4990984 99.0144262,38.3097541 C98.6898361,38.1204098 98.3995082,37.8904918 98.142541,37.62 C97.8855738,37.3495082 97.6754918,37.0285246 97.5131967,36.6561475 C97.3509016,36.2846721 97.2697541,35.8545902 97.2697541,35.3677049 C97.2697541,34.8681967 97.3743443,34.4011475 97.5844262,33.9683607 C97.7936066,33.5355738 98.0848361,33.1595902 98.4572131,32.8422131 C98.8286885,32.5248361 99.2686885,32.2777869 99.7754098,32.1019672 C100.282131,31.9261475 100.841148,31.8377869 101.448852,31.8377869 C102.246803,31.8377869 102.984344,31.9901639 103.660574,32.294918 C104.336803,32.5987705 104.911148,32.9945902 105.38541,33.4814754 L104.472049,34.5769672 C104.066311,34.1847541 103.616393,33.8763934 103.123197,33.6536885 C102.629098,33.430082 102.070984,33.3191803 101.448852,33.3191803 C100.705,33.3191803 100.106311,33.4913934 99.6536885,33.8358197 C99.2010656,34.1811475 98.9738525,34.6581148 98.9738525,35.2667213 C98.9738525,35.5913115 99.0378689,35.8654098 99.1668033,36.0881148 C99.2948361,36.3117213 99.4679508,36.507377 99.6843443,36.6768852 C99.9007377,36.8454918 100.136967,36.9942623 100.394836,37.1231967 C100.650902,37.2512295 100.91418,37.3693443 101.185574,37.4784426 L103.072705,38.2890164 C103.450492,38.4513115 103.809344,38.6379508 104.147459,38.8471311 C104.485574,39.0572131 104.776803,39.3006557 105.019344,39.577459 C105.263689,39.8551639 105.455738,40.1797541 105.598197,40.5512295 C105.739754,40.9236066 105.810984,41.3527869 105.810984,41.8396721 C105.810984,42.3671311 105.706393,42.8612295 105.496311,43.3210656 C105.287131,43.78 104.985984,44.1830328 104.59377,44.527459 C104.201557,44.8727869 103.728197,45.1432787 103.173689,45.3398361 C102.61918,45.5354918 101.989836,45.6328689 101.287459,45.6328689 C100.353361,45.6328689 99.4877869,45.4570492 98.6898361,45.1063115 C97.8918852,44.7546721 97.2021311,44.2740984 96.6205738,43.6654918 L97.634918,42.4888525" id="Fill-18" fill="#FFFFFF"></path>
                <path d="M108.428443,32.0812295 L116.096885,32.0812295 L116.096885,33.5013115 L110.111803,33.5013115 L110.111803,37.6804098 L115.163689,37.6804098 L115.163689,39.1212295 L110.111803,39.1212295 L110.111803,43.9495082 L116.299754,43.9495082 L116.299754,45.3903279 L108.428443,45.3903279 L108.428443,32.0812295" id="Fill-19" fill="#FFFFFF"></path>
                <path d="M120.803443,38.3909016 L123.035,38.3909016 C124.076393,38.3909016 124.874344,38.1781148 125.428852,37.7516393 C125.983361,37.3251639 126.261066,36.6795902 126.261066,35.8140164 C126.261066,34.934918 125.983361,34.32 125.428852,33.9683607 C124.874344,33.6167213 124.076393,33.4409016 123.035,33.4409016 L120.803443,33.4409016 L120.803443,38.3909016 L120.803443,38.3909016 Z M126.423361,45.3903279 L123.218033,39.7704098 L120.803443,39.7704098 L120.803443,45.3903279 L119.120082,45.3903279 L119.120082,32.0812295 L123.278443,32.0812295 C123.954672,32.0812295 124.58041,32.1461475 125.154754,32.2741803 C125.73,32.4031148 126.223197,32.6159016 126.636148,32.9134426 C127.048197,33.2109836 127.36918,33.5959836 127.6,34.0693443 C127.829918,34.5427049 127.944426,35.1242623 127.944426,35.8140164 C127.944426,36.8554098 127.673934,37.687623 127.132951,38.3097541 C126.591967,38.9318852 125.868852,39.3583607 124.962705,39.587377 L128.330328,45.3903279 L126.423361,45.3903279 L126.423361,45.3903279 Z" id="Fill-20" fill="#FFFFFF"></path>
                <path d="M135.004262,32.0812295 L142.672705,32.0812295 L142.672705,33.5013115 L136.688525,33.5013115 L136.688525,37.6804098 L141.739508,37.6804098 L141.739508,39.1212295 L136.688525,39.1212295 L136.688525,43.9495082 L142.875574,43.9495082 L142.875574,45.3903279 L135.004262,45.3903279 L135.004262,32.0812295" id="Fill-21" fill="#FFFFFF"></path>
                <path d="M148.048279,38.512623 L144.437213,32.0812295 L146.303607,32.0812295 L148.10959,35.4894262 C148.28541,35.8013934 148.451311,36.1016393 148.606393,36.3928689 C148.762377,36.6831967 148.940902,37.024918 149.144672,37.4171311 L149.22582,37.4171311 C149.414262,37.024918 149.580164,36.6831967 149.722623,36.3928689 C149.865082,36.1016393 150.016557,35.8013934 150.178852,35.4894262 L151.944262,32.0812295 L153.729508,32.0812295 L150.098607,38.5937705 L153.972951,45.3903279 L152.106557,45.3903279 L150.159016,41.7990984 C149.982295,41.4745082 149.80377,41.14 149.621639,40.7946721 C149.438607,40.4493443 149.238443,40.0742623 149.022049,39.6694262 L148.940902,39.6694262 C148.751557,40.0742623 148.569426,40.4493443 148.393607,40.7946721 C148.217787,41.14 148.048279,41.4745082 147.886885,41.7990984 L145.95918,45.3903279 L144.173934,45.3903279 L148.048279,38.512623" id="Fill-22" fill="#FFFFFF"></path>
                <path d="M159.976967,38.7353279 C161.140082,38.7353279 162.002049,38.5162295 162.56377,38.0762295 C163.12459,37.6371311 163.405902,36.9437705 163.405902,35.9970492 C163.405902,35.0368033 163.121885,34.3704918 162.553852,33.9990164 C161.984918,33.6266393 161.126557,33.4409016 159.976967,33.4409016 L157.785984,33.4409016 L157.785984,38.7353279 L159.976967,38.7353279 L159.976967,38.7353279 Z M156.102623,32.0812295 L160.179836,32.0812295 C160.910164,32.0812295 161.580082,32.1497541 162.188689,32.2840984 C162.797295,32.4193443 163.313934,32.6393443 163.74041,32.9431967 C164.165984,33.2479508 164.497787,33.650082 164.734918,34.1504918 C164.971148,34.6509016 165.089262,35.2667213 165.089262,35.9970492 C165.089262,36.7003279 164.971148,37.3089344 164.734918,37.8228689 C164.497787,38.3368033 164.162377,38.7632787 163.72959,39.1004918 C163.296803,39.4395082 162.780164,39.6928689 162.177869,39.8614754 C161.576475,40.0309836 160.910164,40.1157377 160.179836,40.1157377 L157.785984,40.1157377 L157.785984,45.3903279 L156.102623,45.3903279 L156.102623,32.0812295 L156.102623,32.0812295 Z" id="Fill-23" fill="#FFFFFF"></path>
                <path d="M167.787869,32.0812295 L175.456311,32.0812295 L175.456311,33.5013115 L169.472131,33.5013115 L169.472131,37.6804098 L174.523115,37.6804098 L174.523115,39.1212295 L169.472131,39.1212295 L169.472131,43.9495082 L175.65918,43.9495082 L175.65918,45.3903279 L167.787869,45.3903279 L167.787869,32.0812295" id="Fill-24" fill="#FFFFFF"></path>
                <path d="M180.162869,38.3909016 L182.394426,38.3909016 C183.43582,38.3909016 184.232869,38.1781148 184.787377,37.7516393 C185.342787,37.3251639 185.61959,36.6795902 185.61959,35.8140164 C185.61959,34.934918 185.342787,34.32 184.787377,33.9683607 C184.232869,33.6167213 183.43582,33.4409016 182.394426,33.4409016 L180.162869,33.4409016 L180.162869,38.3909016 L180.162869,38.3909016 Z M185.782787,45.3903279 L182.576557,39.7704098 L180.162869,39.7704098 L180.162869,45.3903279 L178.478607,45.3903279 L178.478607,32.0812295 L182.637869,32.0812295 C183.313197,32.0812295 183.938934,32.1461475 184.51418,32.2741803 C185.089426,32.4031148 185.582623,32.6159016 185.994672,32.9134426 C186.407623,33.2109836 186.728607,33.5959836 186.959426,34.0693443 C187.188443,34.5427049 187.303852,35.1242623 187.303852,35.8140164 C187.303852,36.8554098 187.032459,37.687623 186.492377,38.3097541 C185.950492,38.9318852 185.227377,39.3583607 184.32123,39.587377 L187.689754,45.3903279 L185.782787,45.3903279 L185.782787,45.3903279 Z" id="Fill-25" fill="#FFFFFF"></path>
                <path d="M190.266639,32.0812295 L191.950902,32.0812295 L191.950902,45.3894262 L190.266639,45.3894262 L190.266639,32.0812295 Z" id="Fill-26" fill="#FFFFFF"></path>
                <path d="M195.601639,32.0812295 L203.270082,32.0812295 L203.270082,33.5013115 L197.285902,33.5013115 L197.285902,37.6804098 L202.336885,37.6804098 L202.336885,39.1212295 L197.285902,39.1212295 L197.285902,43.9495082 L203.472951,43.9495082 L203.472951,45.3903279 L195.601639,45.3903279 L195.601639,32.0812295" id="Fill-27" fill="#FFFFFF"></path>
                <path d="M206.292377,32.0812295 L208.037049,32.0812295 L212.845492,40.4394262 L214.28541,43.1993443 L214.366557,43.1993443 C214.325984,42.5231148 214.281803,41.822541 214.234918,41.0994262 C214.187131,40.3763115 214.163689,39.6622131 214.163689,38.9589344 L214.163689,32.0812295 L215.766803,32.0812295 L215.766803,45.3903279 L214.022131,45.3903279 L209.192951,37.0113934 L207.753033,34.2722131 L207.671885,34.2722131 C207.725984,34.9484426 207.776475,35.6354918 207.824262,36.3315574 C207.871148,37.0285246 207.895492,37.7281967 207.895492,38.4314754 L207.895492,45.3903279 L206.292377,45.3903279 L206.292377,32.0812295" id="Fill-28" fill="#FFFFFF"></path>
                <path d="M218.647541,38.7353279 C218.647541,37.6668852 218.796311,36.7066393 219.093852,35.8545902 C219.391393,35.002541 219.804344,34.2794262 220.330902,33.6843443 C220.859262,33.0892623 221.485,32.6321311 222.208115,32.3147541 C222.93123,31.9964754 223.719262,31.8377869 224.571311,31.8377869 C225.382787,31.8377869 226.093279,32.0036885 226.701885,32.3354918 C227.310492,32.6663934 227.810902,33.0486885 228.203115,33.4814754 L227.24918,34.5562295 C226.897541,34.177541 226.508934,33.8763934 226.082459,33.6536885 C225.656885,33.430082 225.160082,33.3191803 224.592049,33.3191803 C223.956393,33.3191803 223.381148,33.4445082 222.867213,33.6942623 C222.353279,33.944918 221.91418,34.3028689 221.549016,34.7690164 C221.183852,35.2360656 220.899836,35.8013934 220.696967,36.4631967 C220.493197,37.1259016 220.392213,37.8706557 220.392213,38.6947541 C220.392213,39.5341803 220.490492,40.2879508 220.686148,40.9569672 C220.882705,41.6268852 221.156803,42.1985246 221.508443,42.6709836 C221.860082,43.1452459 222.289262,43.5104098 222.796885,43.767377 C223.303607,44.0243443 223.875246,44.152377 224.510902,44.152377 C225.160082,44.152377 225.724508,44.0243443 226.20418,43.767377 C226.684754,43.5104098 227.140984,43.1452459 227.574672,42.6709836 L228.527705,43.7060656 C228.000246,44.3146721 227.405164,44.7880328 226.742459,45.1261475 C226.079754,45.4642623 225.322377,45.6328689 224.470328,45.6328689 C223.630902,45.6328689 222.857295,45.4777869 222.147705,45.1667213 C221.437213,44.8556557 220.822295,44.4057377 220.301148,43.8178689 C219.780902,43.2290984 219.374262,42.5059836 219.083934,41.6467213 C218.792705,40.7883607 218.647541,39.8181967 218.647541,38.7353279" id="Fill-29" fill="#FFFFFF"></path>
                <path d="M231.002705,32.0812295 L238.670246,32.0812295 L238.670246,33.5013115 L232.686066,33.5013115 L232.686066,37.6804098 L237.737049,37.6804098 L237.737049,39.1212295 L232.686066,39.1212295 L232.686066,43.9495082 L238.874016,43.9495082 L238.874016,45.3903279 L231.002705,45.3903279 L231.002705,32.0812295" id="Fill-30" fill="#FFFFFF"></path>
            </g>
        </g>
    </g>
</svg>